<svg id="Layer_1" data-name="Layer 1" xmlns="http://www.w3.org/2000/svg" viewBox="0 0 866.87 788.78"><defs><style>.cls-1{fill:#03beb1;}.cls-2{fill:#bfbfbf;}.cls-3{fill:#cecece;}.cls-4{fill:#fff;}</style></defs><title>logoberlijn</title><path d="M763.65,932.32a.62.62,0,1,0,.62.62A.62.62,0,0,0,763.65,932.32Zm-59.94-36.58L490.86,435.65H665.28l-43.91,94.93,68.88,148.87,44.9,20.27,174.8-377.82-46.56-21H428.52l-17.72-38.3-54.18-24.46H233L525.93,871.28l54.18,24.46Zm55.55-149.27a.62.62,0,1,0,.62.62A.62.62,0,0,0,759.25,746.47ZM378,638.3a.62.62,0,1,0,.62.62A.62.62,0,0,0,378,638.3Zm586.52-337a.62.62,0,1,0,.62.62A.62.62,0,0,0,964.52,301.26ZM439.15,234.34a.62.62,0,1,0,.62.62A.62.62,0,0,0,439.15,234.34ZM182.7,198.78a.62.62,0,1,0,.62.62A.62.62,0,0,0,182.7,198.78Z" transform="translate(-136.51 -172.54)"/><path d="M773.51,786.22l229.88-496.87L883.61,235.29H476.55l-10.38-22.43-89.32-40.32H136.51L482.79,921l89.32,40.32H812.42L720.31,762.21Zm-14.25-25.39A13.74,13.74,0,1,1,773,747.09,13.74,13.74,0,0,1,759.25,760.83ZM964.52,288.15a13.74,13.74,0,1,1-13.74,13.74A13.74,13.74,0,0,1,964.52,288.15ZM439.15,221.23A13.74,13.74,0,1,1,425.41,235,13.74,13.74,0,0,1,439.15,221.23ZM182.7,213.14a13.74,13.74,0,1,1,13.74-13.74A13.74,13.74,0,0,1,182.7,213.14ZM360,617.64a5.71,5.71,0,1,1,7.75,2.81A5.83,5.83,0,0,1,360,617.64Zm4.29,21.27A13.74,13.74,0,1,1,378,652.66,13.74,13.74,0,0,1,364.27,638.92Zm28.58,29.51a6,6,0,1,1,2.48-7.86A5.83,5.83,0,0,1,392.85,668.43ZM763.65,919.2a13.74,13.74,0,1,1-13.74,13.74A13.74,13.74,0,0,1,763.65,919.2Zm-39.42-10.35H577.29l-61.2-27.63L212.48,225h147l61.2,27.63,16.25,35.13H866.21l61.2,27.63L741.6,717l-61.2-27.63L606.91,530.58l37.85-81.81H511.38Z" transform="translate(-136.51 -172.54)"/><polygon points="243.58 128.34 196.25 26.03 293.99 70.15 320.91 128.34 243.58 128.34"/><polygon points="300.39 115.22 284.14 80.09 222.93 52.47 251.96 115.22 300.39 115.22"/><polygon points="437.95 749.43 374.17 720.64 379.57 695.57 505.99 695.57 293.15 235.49 541.55 235.49 516.63 289.35 395.39 289.35 608.23 749.43 437.95 749.43"/><polygon points="508.25 276.23 521.03 248.6 313.67 248.6 526.51 708.69 379.57 708.69 440.77 736.32 587.71 736.32 374.87 276.23 508.25 276.23"/><polygon points="526.42 523.36 723.25 97.92 808.36 136.34 611.54 561.78 526.42 523.36"/><polygon points="605.09 544.48 790.9 142.85 729.7 115.22 543.88 516.85 605.09 544.48"/><polygon points="371.18 721.81 55.45 39.35 231.32 39.35 260.35 102.1 750.22 102.1 543.88 548.09 455.95 358.04 500.51 261.72 334.19 261.72 547.03 721.81 371.18 721.81"/><polygon points="313.67 248.6 521.03 248.6 508.25 276.23 470.4 358.04 543.88 516.85 729.7 115.22 592.8 115.22 582.73 115.22 300.39 115.22 251.96 115.22 222.93 52.47 75.97 52.47 379.57 708.69 526.51 708.69 313.67 248.6"/><path d="M182.7,226.26a26.86,26.86,0,1,1,26.86-26.86A26.89,26.89,0,0,1,182.7,226.26Z" transform="translate(-136.51 -172.54)"/><circle cx="46.19" cy="26.86" r="13.74"/><path d="M365.29,634.14a19.21,19.21,0,0,1-17.07-10.68A19,19,0,0,1,356.65,598a18.72,18.72,0,0,1,8.25-1.93A19.21,19.21,0,0,1,382,606.78a19,19,0,0,1-8.43,25.43,18.73,18.73,0,0,1-8.25,1.93Z" transform="translate(-136.51 -172.54)"/><ellipse cx="365.1" cy="615.12" rx="5.71" ry="5.95" transform="translate(-371.23 52.85) rotate(-26.3)"/><path d="M378,612.06a26.86,26.86,0,0,1,0,53.71" transform="translate(-136.51 -172.54)"/><circle cx="241.49" cy="466.38" r="13.74"/><path d="M390.41,682.12a19.22,19.22,0,0,1-17.07-10.68A19,19,0,0,1,381.77,646a18.71,18.71,0,0,1,8.25-1.93,19.21,19.21,0,0,1,18.19,25,18.65,18.65,0,0,1-17.8,13.09Z" transform="translate(-136.51 -172.54)"/><ellipse cx="390.21" cy="663.09" rx="5.71" ry="5.95" transform="translate(-389.89 68.94) rotate(-26.3)"/><path d="M763.65,959.8a26.86,26.86,0,1,1,26.86-26.86A26.89,26.89,0,0,1,763.65,959.8Z" transform="translate(-136.51 -172.54)"/><circle cx="627.13" cy="760.4" r="13.74"/><path d="M759.25,773.95a26.86,26.86,0,1,1,26.86-26.86A26.89,26.89,0,0,1,759.25,773.95Z" transform="translate(-136.51 -172.54)"/><circle cx="622.74" cy="574.56" r="13.74"/><path d="M964.52,328.74a26.86,26.86,0,1,1,26.86-26.86A26.89,26.89,0,0,1,964.52,328.74Z" transform="translate(-136.51 -172.54)"/><circle cx="828.01" cy="129.35" r="13.74"/><path d="M439.15,261.82A26.86,26.86,0,1,1,466,235,26.89,26.89,0,0,1,439.15,261.82Z" transform="translate(-136.51 -172.54)"/><circle cx="302.63" cy="62.43" r="13.74"/><path class="cls-1" d="M773.51,786.22l229.88-496.87L883.61,235.29H476.55l-10.38-22.43-89.32-40.32H136.51L482.79,921l89.32,40.32H812.42L720.31,762.21Zm-14.25-25.39A13.74,13.74,0,1,1,773,747.09,13.74,13.74,0,0,1,759.25,760.83ZM964.52,288.15a13.74,13.74,0,1,1-13.74,13.74A13.74,13.74,0,0,1,964.52,288.15ZM439.15,221.23A13.74,13.74,0,1,1,425.41,235,13.74,13.74,0,0,1,439.15,221.23ZM182.7,213.14a13.74,13.74,0,1,1,13.74-13.74A13.74,13.74,0,0,1,182.7,213.14ZM360,617.64a5.71,5.71,0,1,1,7.75,2.81A5.83,5.83,0,0,1,360,617.64Zm4.29,21.27A13.74,13.74,0,1,1,378,652.66,13.74,13.74,0,0,1,364.27,638.92Zm28.58,29.51a6,6,0,1,1,2.48-7.86A5.83,5.83,0,0,1,392.85,668.43ZM763.65,919.2a13.74,13.74,0,1,1-13.74,13.74A13.74,13.74,0,0,1,763.65,919.2Zm-39.42-10.35H577.29l-61.2-27.63L212.48,225h147l61.2,27.63,16.25,35.13H866.21l61.2,27.63L741.6,717l-61.2-27.63L606.91,530.58l37.85-81.81H511.38Z" transform="translate(-136.51 -172.54)"/><polygon class="cls-2" points="300.39 115.22 284.14 80.09 222.93 52.47 251.96 115.22 300.39 115.22"/><polygon class="cls-3" points="508.25 276.23 521.03 248.6 313.67 248.6 526.51 708.69 379.57 708.69 440.77 736.32 587.71 736.32 374.87 276.23 508.25 276.23"/><polygon class="cls-2" points="605.09 544.48 790.9 142.85 729.7 115.22 543.88 516.85 605.09 544.48"/><polygon class="cls-4" points="313.67 248.6 521.03 248.6 508.25 276.23 470.4 358.04 543.88 516.85 729.7 115.22 592.8 115.22 582.73 115.22 300.39 115.22 251.96 115.22 222.93 52.47 75.97 52.47 379.57 708.69 526.51 708.69 313.67 248.6"/><circle class="cls-4" cx="46.19" cy="26.86" r="13.74"/><ellipse class="cls-4" cx="365.1" cy="615.12" rx="5.71" ry="5.95" transform="translate(-371.23 52.85) rotate(-26.3)"/><circle class="cls-4" cx="241.49" cy="466.38" r="13.74"/><ellipse class="cls-4" cx="390.21" cy="663.09" rx="5.71" ry="5.95" transform="translate(-389.89 68.94) rotate(-26.3)"/><circle class="cls-4" cx="627.13" cy="760.4" r="13.74"/><circle class="cls-4" cx="622.74" cy="574.56" r="13.74"/><circle class="cls-4" cx="828.01" cy="129.35" r="13.74"/><circle class="cls-4" cx="302.63" cy="62.43" r="13.74"/></svg>